<svg width="28" height="28" viewBox="0 0 28 28" fill="none" xmlns="http://www.w3.org/2000/svg">
<path fill-rule="evenodd" clip-rule="evenodd" d="M13.9998 26C10.8258 26 7.94376 24.752 5.79576 22.733C7.31176 20.064 10.0028 18.322 13.9998 18.322C17.9968 18.322 20.6878 20.064 22.2038 22.733C20.0558 24.752 17.1748 26 13.9998 26ZM13.9998 6.322C16.7618 6.322 18.9998 8.561 18.9998 11.322C18.9998 14.084 16.7618 16.322 13.9998 16.322C11.2388 16.322 8.99976 14.084 8.99976 11.322C8.99976 8.561 11.2388 6.322 13.9998 6.322ZM13.9998 0C6.26876 0 -0.000244141 6.268 -0.000244141 14C-0.000244141 18.277 1.92376 22.101 4.94676 24.669C7.38976 26.743 10.5458 28 13.9998 28C17.4548 28 20.6108 26.743 23.0538 24.669C26.0768 22.101 27.9998 18.277 27.9998 14C27.9998 6.268 21.7318 0 13.9998 0Z" fill="white"/>
</svg>
