<svg width="16" height="16" viewBox="0 0 16 16" fill="none" xmlns="http://www.w3.org/2000/svg">
<path id="call" fill-rule="evenodd" clip-rule="evenodd" d="M10.667 8H12.444C12.444 5.547 10.453 3.556 8 3.556V5.333C9.476 5.333 10.667 6.524 10.667 8ZM14.223 8H16C16 3.582 12.418 0 8 0V1.777C11.44 1.777 14.223 4.56 14.223 8ZM15.111 11.111C14 11.111 12.934 10.934 11.938 10.604C11.627 10.507 11.28 10.578 11.031 10.817L9.075 12.773C6.56 11.493 4.498 9.44 3.218 6.916L5.173 4.951C5.422 4.72 5.493 4.373 5.396 4.062C5.066 3.066 4.889 2 4.889 0.889C4.889 0.4 4.489 0 4 0H0.889C0.4 0 0 0.4 0 0.889C0 9.235 6.765 16 15.111 16C15.6 16 16 15.6 16 15.111V12C16 11.511 15.6 11.111 15.111 11.111Z" fill="#2FFBC8"/>
</svg>
