<svg width="24" height="24" viewBox="0 0 24 24" fill="none" xmlns="http://www.w3.org/2000/svg">
<mask id="mask0" mask-type="alpha" maskUnits="userSpaceOnUse" x="5" y="5" width="14" height="14">
<path fill-rule="evenodd" clip-rule="evenodd" d="M5 5H19V18.9999H5V5Z" fill="white"/>
</mask>
<g mask="url(#mask0)">
<path fill-rule="evenodd" clip-rule="evenodd" d="M15.7364 9.1034C15.2727 9.1034 14.8968 8.7275 14.8968 8.26306C14.8968 7.79943 15.2727 7.42353 15.7364 7.42353C16.2 7.42353 16.5767 7.79943 16.5767 8.26306C16.5767 8.7275 16.2 9.1034 15.7364 9.1034M11.9999 14.8963C10.4006 14.8963 9.10384 13.5996 9.10384 12.0002C9.10384 10.4 10.4006 9.10327 11.9999 9.10327C13.6001 9.10327 14.8969 10.4 14.8969 12.0002C14.8969 13.5996 13.6001 14.8963 11.9999 14.8963M18.9583 9.11395C18.9237 8.3686 18.8054 7.85989 18.6323 7.41476C18.4537 6.95515 18.2138 6.56396 17.825 6.17519C17.4362 5.7856 17.0458 5.54654 16.5854 5.36785C16.1403 5.19479 15.6308 5.07647 14.8862 5.04266C14.1401 5.00805 13.901 5 11.9998 5C10.0986 5 9.86031 5.00805 9.11334 5.04266C8.36879 5.07647 7.86008 5.19479 7.41496 5.36785C6.95454 5.54654 6.56335 5.7856 6.17458 6.17519C5.7858 6.56396 5.54674 6.95515 5.36724 7.41476C5.19418 7.85989 5.07586 8.3686 5.04205 9.11395C5.00824 9.86092 4.99939 10.0992 4.99939 12.0004C4.99939 13.9008 5.00824 14.1399 5.04205 14.8869C5.07586 15.6314 5.19418 16.1401 5.36724 16.5852C5.54674 17.0457 5.7858 17.4368 6.17458 17.8248C6.56335 18.2144 6.95454 18.4535 7.41496 18.633C7.86008 18.806 8.36879 18.9235 9.11334 18.9581C9.86031 18.992 10.0986 19 11.9998 19C13.901 19 14.1401 18.992 14.8862 18.9581C15.6308 18.9235 16.1403 18.806 16.5854 18.633C17.0458 18.4535 17.4362 18.2144 17.825 17.8248C18.2138 17.4368 18.4537 17.0457 18.6323 16.5852C18.8054 16.1401 18.9237 15.6314 18.9583 14.8869C18.9921 14.1399 19.0002 13.9008 19.0002 12.0004C19.0002 10.0992 18.9921 9.86092 18.9583 9.11395" fill="white"/>
</g>
</svg>
