<svg width="24" height="24" viewBox="0 0 24 24" fill="none" xmlns="http://www.w3.org/2000/svg">
<path fill-rule="evenodd" clip-rule="evenodd" d="M20.037 6.639C19.411 6.917 18.737 7.105 18.03 7.189C18.752 6.757 19.307 6.072 19.566 5.256C18.891 5.657 18.144 5.947 17.346 6.103C16.71 5.424 15.801 5 14.795 5C12.866 5 11.301 6.565 11.301 8.495C11.301 8.769 11.331 9.035 11.391 9.291C8.486 9.145 5.912 7.755 4.186 5.639C3.886 6.157 3.713 6.757 3.713 7.397C3.713 8.609 4.33 9.679 5.268 10.306C4.695 10.289 4.156 10.13 3.684 9.87V9.913C3.684 11.607 4.889 13.02 6.489 13.34C6.195 13.423 5.887 13.464 5.568 13.464C5.343 13.464 5.123 13.442 4.911 13.401C5.354 14.789 6.645 15.801 8.175 15.827C6.979 16.765 5.471 17.324 3.834 17.324C3.552 17.324 3.273 17.308 3 17.276C4.547 18.266 6.385 18.846 8.358 18.846C14.788 18.846 18.303 13.52 18.303 8.901C18.303 8.749 18.3 8.597 18.294 8.449C18.977 7.955 19.57 7.34 20.037 6.639Z" fill="black"/>
</svg>
