<svg width="24" height="24" viewBox="0 0 24 24" fill="none" xmlns="http://www.w3.org/2000/svg">
<mask id="mask0" mask-type="alpha" maskUnits="userSpaceOnUse" x="3" y="5" width="18" height="14">
<path fill-rule="evenodd" clip-rule="evenodd" d="M3 5H21V19H3V5Z" fill="white"/>
</mask>
<g mask="url(#mask0)">
<path fill-rule="evenodd" clip-rule="evenodd" d="M21 6.65728C20.3386 6.93838 19.6265 7.12847 18.8795 7.21341C19.6423 6.77659 20.2287 6.08395 20.5024 5.25885C19.7892 5.66433 19 5.95756 18.1569 6.1153C17.4849 5.42873 16.5245 5 15.4617 5C13.4236 5 11.7701 6.58245 11.7701 8.53397C11.7701 8.81103 11.8018 9.08 11.8652 9.33885C8.796 9.19122 6.07649 7.78572 4.25292 5.64613C3.93596 6.1699 3.75318 6.77659 3.75318 7.42373C3.75318 8.64925 4.40506 9.73118 5.39609 10.3652C4.7907 10.348 4.22123 10.1872 3.72254 9.92431V9.96779C3.72254 11.6807 4.99566 13.1094 6.68611 13.433C6.37549 13.5169 6.05008 13.5584 5.71305 13.5584C5.47533 13.5584 5.24289 13.5361 5.01891 13.4947C5.48695 14.8982 6.85093 15.9214 8.46742 15.9477C7.20381 16.8962 5.61056 17.4614 3.88102 17.4614C3.58308 17.4614 3.28831 17.4453 2.99988 17.4129C4.63433 18.4139 6.57623 19.0004 8.66077 19.0004C15.4543 19.0004 19.168 13.615 19.168 8.9445C19.168 8.79081 19.1648 8.63711 19.1585 8.48746C19.8801 7.98795 20.5066 7.36609 21 6.65728" fill="white"/>
</g>
</svg>
