<svg width="24" height="24" viewBox="0 0 24 24" fill="none" xmlns="http://www.w3.org/2000/svg">
<path fill-rule="evenodd" clip-rule="evenodd" d="M20.6843 14.2548C22.3603 15.8108 22.7073 16.5678 22.7643 16.6608C23.4583 17.8128 21.9953 17.9018 21.9953 17.9018L19.1973 17.9418C19.1973 17.9418 18.5963 18.0608 17.8043 17.5178C16.7583 16.7988 15.7713 14.9308 15.0023 15.1748C14.2223 15.4228 14.2473 17.1028 14.2473 17.1028C14.2473 17.1028 14.2523 17.4618 14.0753 17.6518C13.8813 17.8598 13.5033 17.9018 13.5033 17.9018H12.2503C12.2503 17.9018 9.48831 18.0688 7.05431 15.5348C4.40031 12.7718 2.05731 7.28884 2.05731 7.28884C2.05731 7.28884 1.92131 6.92884 2.06831 6.75484C2.23331 6.55984 2.68331 6.54684 2.68331 6.54684L5.67631 6.52784C5.67631 6.52784 5.95831 6.57484 6.16031 6.72284C6.32731 6.84584 6.42031 7.07384 6.42031 7.07384C6.42031 7.07384 6.90431 8.29784 7.54431 9.40484C8.79531 11.5658 9.37831 12.0388 9.80231 11.8068C10.4213 11.4698 10.2353 8.75184 10.2353 8.75184C10.2353 8.75184 10.2463 7.76584 9.92431 7.32684C9.67431 6.98584 9.20331 6.88684 8.99431 6.85884C8.82631 6.83684 9.10231 6.44584 9.46031 6.26984C9.99931 6.00584 10.9513 5.99084 12.0753 6.00284C12.9513 6.01184 13.2033 6.06684 13.5453 6.14884C14.5773 6.39784 14.2273 7.35984 14.2273 9.66884C14.2273 10.4078 14.0943 11.4478 14.6273 11.7928C14.8563 11.9408 15.4173 11.8148 16.8203 9.43284C17.4853 8.30384 17.9843 6.97684 17.9843 6.97684C17.9843 6.97684 18.0923 6.73984 18.2623 6.63884C18.4343 6.53484 18.6683 6.56684 18.6683 6.56684L21.8193 6.54684C21.8193 6.54684 22.7653 6.43484 22.9183 6.86184C23.0803 7.31084 22.5653 8.35784 21.2783 10.0728C19.1643 12.8898 18.9293 12.6258 20.6843 14.2548Z" fill="black"/>
</svg>
