<svg width="24" height="24" viewBox="0 0 24 24" fill="none" xmlns="http://www.w3.org/2000/svg">
<path fill-rule="evenodd" clip-rule="evenodd" d="M20.6197 14.2874C22.3796 15.8495 22.744 16.6095 22.8038 16.7029C23.5326 17.8594 21.9963 17.9487 21.9963 17.9487L19.0583 17.9889C19.0583 17.9889 18.4272 18.1084 17.5955 17.5632C16.4972 16.8414 15.4607 14.966 14.6532 15.211C13.8342 15.46 13.8604 17.1466 13.8604 17.1466C13.8604 17.1466 13.8657 17.507 13.6798 17.6978C13.4761 17.9066 13.0792 17.9487 13.0792 17.9487H11.7635C11.7635 17.9487 8.8632 18.1164 6.30734 15.5724C3.52048 12.7985 1.06018 7.29392 1.06018 7.29392C1.06018 7.29392 0.917373 6.9325 1.07173 6.75782C1.24499 6.56205 1.71752 6.549 1.71752 6.549L4.86036 6.52992C4.86036 6.52992 5.15648 6.57711 5.36859 6.72569C5.54395 6.84918 5.6416 7.07808 5.6416 7.07808C5.6416 7.07808 6.14984 8.3069 6.82188 9.41826C8.1355 11.5878 8.74769 12.0626 9.19292 11.8297C9.84291 11.4914 9.64759 8.76269 9.64759 8.76269C9.64759 8.76269 9.65914 7.7728 9.32102 7.33207C9.05851 6.98973 8.56393 6.89034 8.34447 6.86223C8.16806 6.84014 8.45787 6.4476 8.8338 6.27091C9.39978 6.00587 10.3994 5.99081 11.5797 6.00285C12.4996 6.01189 12.7642 6.06711 13.1233 6.14943C14.207 6.39941 13.8394 7.3652 13.8394 9.6833C13.8394 10.4252 13.6998 11.4693 14.2595 11.8157C14.4999 11.9643 15.089 11.8378 16.5623 9.44637C17.2605 8.31292 17.7845 6.98069 17.7845 6.98069C17.7845 6.98069 17.8979 6.74276 18.0764 6.64136C18.2571 6.53695 18.5028 6.56908 18.5028 6.56908L21.8115 6.549C21.8115 6.549 22.8049 6.43656 22.9655 6.86524C23.1356 7.31601 22.5949 8.36714 21.2434 10.0889C19.0236 12.917 18.7768 12.652 20.6197 14.2874Z" fill="white"/>
</svg>
