<svg width="18" height="18" viewBox="0 0 18 18" fill="none" xmlns="http://www.w3.org/2000/svg">
<g id="inst">
<mask id="mask0" mask-type="alpha" maskUnits="userSpaceOnUse" x="0" y="-1" width="18" height="19">
<path id="Clip 2" fill-rule="evenodd" clip-rule="evenodd" d="M0 -0.000244141H17.393V17.3927H0V-0.000244141Z" fill="white"/>
</mask>
<g mask="url(#mask0)">
<path id="Fill 1" fill-rule="evenodd" clip-rule="evenodd" d="M13.3385 5.09776C12.7625 5.09776 12.2955 4.63076 12.2955 4.05376C12.2955 3.47776 12.7625 3.01076 13.3385 3.01076C13.9145 3.01076 14.3825 3.47776 14.3825 4.05376C14.3825 4.63076 13.9145 5.09776 13.3385 5.09776ZM8.69651 12.2948C6.70951 12.2948 5.09851 10.6838 5.09851 8.69676C5.09851 6.70876 6.70951 5.09776 8.69651 5.09776C10.6845 5.09776 12.2955 6.70876 12.2955 8.69676C12.2955 10.6838 10.6845 12.2948 8.69651 12.2948ZM17.3415 5.11076C17.2985 4.18476 17.1515 3.55276 16.9365 2.99976C16.7145 2.42876 16.4165 1.94276 15.9335 1.45976C15.4505 0.975756 14.9655 0.678756 14.3935 0.456756C13.8405 0.241756 13.2075 0.0947559 12.2825 0.0527559C11.3555 0.00975586 11.0585 -0.000244141 8.69651 -0.000244141C6.33451 -0.000244141 6.03851 0.00975586 5.11051 0.0527559C4.18551 0.0947559 3.55351 0.241756 3.00051 0.456756C2.42851 0.678756 1.94251 0.975756 1.45951 1.45976C0.976512 1.94276 0.679512 2.42876 0.456512 2.99976C0.241512 3.55276 0.0945117 4.18476 0.0525117 5.11076C0.0105117 6.03876 -0.000488281 6.33476 -0.000488281 8.69676C-0.000488281 11.0578 0.0105117 11.3548 0.0525117 12.2828C0.0945117 13.2078 0.241512 13.8398 0.456512 14.3928C0.679512 14.9648 0.976512 15.4508 1.45951 15.9328C1.94251 16.4168 2.42851 16.7138 3.00051 16.9368C3.55351 17.1518 4.18551 17.2978 5.11051 17.3408C6.03851 17.3828 6.33451 17.3928 8.69651 17.3928C11.0585 17.3928 11.3555 17.3828 12.2825 17.3408C13.2075 17.2978 13.8405 17.1518 14.3935 16.9368C14.9655 16.7138 15.4505 16.4168 15.9335 15.9328C16.4165 15.4508 16.7145 14.9648 16.9365 14.3928C17.1515 13.8398 17.2985 13.2078 17.3415 12.2828C17.3835 11.3548 17.3935 11.0578 17.3935 8.69676C17.3935 6.33476 17.3835 6.03876 17.3415 5.11076Z" fill="white"/>
</g>
</g>
</svg>
