<svg width="18" height="14" viewBox="0 0 18 14" fill="none" xmlns="http://www.w3.org/2000/svg">
<g id="twitter">
<mask id="mask0" mask-type="alpha" maskUnits="userSpaceOnUse" x="0" y="0" width="18" height="14">
<path id="Clip 2" fill-rule="evenodd" clip-rule="evenodd" d="M0 0.00012207H17.0369V13.8457H0V0.00012207Z" fill="white"/>
</mask>
<g mask="url(#mask0)">
<path id="Fill 1" fill-rule="evenodd" clip-rule="evenodd" d="M17.0369 1.63912C16.4109 1.91712 15.7369 2.10512 15.0299 2.18912C15.7519 1.75712 16.3069 1.07212 16.5659 0.256122C15.8909 0.657122 15.1439 0.947122 14.3459 1.10312C13.7099 0.424122 12.8009 0.00012207 11.7949 0.00012207C9.86588 0.00012207 8.30088 1.56512 8.30088 3.49512C8.30088 3.76912 8.33088 4.03512 8.39088 4.29112C5.48588 4.14512 2.91188 2.75512 1.18588 0.639122C0.885878 1.15712 0.712878 1.75712 0.712878 2.39712C0.712878 3.60912 1.32988 4.67912 2.26788 5.30612C1.69488 5.28912 1.15588 5.13012 0.683878 4.87012V4.91312C0.683878 6.60712 1.88888 8.02012 3.48888 8.34012C3.19488 8.42312 2.88688 8.46412 2.56788 8.46412C2.34288 8.46412 2.12288 8.44212 1.91088 8.40112C2.35388 9.78912 3.64488 10.8011 5.17488 10.8271C3.97888 11.7651 2.47088 12.3241 0.833878 12.3241C0.551878 12.3241 0.272878 12.3081 -0.00012207 12.2761C1.54688 13.2661 3.38488 13.8461 5.35788 13.8461C11.7879 13.8461 15.3029 8.52012 15.3029 3.90112C15.3029 3.74912 15.2999 3.59712 15.2939 3.44912C15.9769 2.95512 16.5699 2.34012 17.0369 1.63912Z" fill="black"/>
</g>
</g>
</svg>
