<svg width="18" height="14" viewBox="0 0 18 14" fill="none" xmlns="http://www.w3.org/2000/svg">
<g id="twitter">
<mask id="mask0" mask-type="alpha" maskUnits="userSpaceOnUse" x="0" y="0" width="18" height="14">
<path id="Clip 2" fill-rule="evenodd" clip-rule="evenodd" d="M0 0H17.0369V13.8456H0V0Z" fill="white"/>
</mask>
<g mask="url(#mask0)">
<path id="Fill 1" fill-rule="evenodd" clip-rule="evenodd" d="M17.037 1.639C16.411 1.917 15.737 2.105 15.03 2.189C15.752 1.757 16.307 1.072 16.566 0.256C15.891 0.657 15.144 0.947 14.346 1.103C13.71 0.424 12.801 0 11.795 0C9.866 0 8.301 1.565 8.301 3.495C8.301 3.769 8.331 4.035 8.391 4.291C5.486 4.145 2.912 2.755 1.186 0.639C0.886 1.157 0.713 1.757 0.713 2.397C0.713 3.609 1.33 4.679 2.268 5.306C1.695 5.289 1.156 5.13 0.684 4.87V4.913C0.684 6.607 1.889 8.02 3.489 8.34C3.195 8.423 2.887 8.464 2.568 8.464C2.343 8.464 2.123 8.442 1.911 8.401C2.354 9.789 3.645 10.801 5.175 10.827C3.979 11.765 2.471 12.324 0.834 12.324C0.552 12.324 0.273 12.308 0 12.276C1.547 13.266 3.385 13.846 5.358 13.846C11.788 13.846 15.303 8.52 15.303 3.901C15.303 3.749 15.3 3.597 15.294 3.449C15.977 2.955 16.57 2.34 17.037 1.639Z" fill="white"/>
</g>
</g>
</svg>
