<svg width="21" height="12" viewBox="0 0 21 12" fill="none" xmlns="http://www.w3.org/2000/svg">
<g id="vk">
<mask id="mask0" mask-type="alpha" maskUnits="userSpaceOnUse" x="0" y="-1" width="21" height="13">
<path id="Clip 2" fill-rule="evenodd" clip-rule="evenodd" d="M0 -0.00012207H20.951V11.9525H0V-0.00012207Z" fill="white"/>
</mask>
<g mask="url(#mask0)">
<path id="Fill 1" fill-rule="evenodd" clip-rule="evenodd" d="M18.6842 8.25472C20.3602 9.81072 20.7072 10.5677 20.7642 10.6607C21.4582 11.8127 19.9952 11.9017 19.9952 11.9017L17.1972 11.9417C17.1972 11.9417 16.5962 12.0607 15.8042 11.5177C14.7582 10.7987 13.7712 8.93072 13.0022 9.17472C12.2222 9.42272 12.2472 11.1027 12.2472 11.1027C12.2472 11.1027 12.2522 11.4617 12.0752 11.6517C11.8812 11.8597 11.5032 11.9017 11.5032 11.9017H10.2502C10.2502 11.9017 7.48819 12.0687 5.05419 9.53472C2.40019 6.77172 0.0571903 1.28872 0.0571903 1.28872C0.0571903 1.28872 -0.0788097 0.928721 0.0681903 0.754721C0.23319 0.559721 0.68319 0.546721 0.68319 0.546721L3.67619 0.527721C3.67619 0.527721 3.95819 0.574721 4.16019 0.722721C4.32719 0.845721 4.42019 1.07372 4.42019 1.07372C4.42019 1.07372 4.90419 2.29772 5.54419 3.40472C6.79519 5.56572 7.37819 6.03872 7.80219 5.80672C8.42119 5.46972 8.23519 2.75172 8.23519 2.75172C8.23519 2.75172 8.24619 1.76572 7.92419 1.32672C7.67419 0.985721 7.20319 0.886721 6.99419 0.858721C6.82619 0.836721 7.10219 0.445721 7.46019 0.269721C7.99919 0.00572127 8.95119 -0.00927874 10.0752 0.00272126C10.9512 0.0117213 11.2032 0.0667213 11.5452 0.148721C12.5772 0.397721 12.2272 1.35972 12.2272 3.66872C12.2272 4.40772 12.0942 5.44772 12.6272 5.79272C12.8562 5.94072 13.4172 5.81472 14.8202 3.43272C15.4852 2.30372 15.9842 0.976721 15.9842 0.976721C15.9842 0.976721 16.0922 0.739721 16.2622 0.638721C16.4342 0.534721 16.6682 0.566721 16.6682 0.566721L19.8192 0.546721C19.8192 0.546721 20.7652 0.434721 20.9182 0.861721C21.0802 1.31072 20.5652 2.35772 19.2782 4.07272C17.1642 6.88972 16.9292 6.62572 18.6842 8.25472Z" fill="black"/>
</g>
</g>
</svg>
