<svg width="89" height="73" viewBox="0 0 89 73" fill="none" xmlns="http://www.w3.org/2000/svg">
<path id="&#226;&#128;&#156;" fill-rule="evenodd" clip-rule="evenodd" d="M65.5937 17.189C61.2955 22.6121 59.1465 28.1059 59.1465 33.6705C59.1465 36.0284 59.4268 38.0562 59.9874 39.7539C63.2578 37.2074 66.8084 35.9341 70.6394 35.9341C75.8719 35.9341 80.2401 37.6082 83.7441 40.9564C87.248 44.3046 89 48.8081 89 54.4671C89 59.7487 87.2247 64.1579 83.674 67.6948C80.1233 71.2316 75.7785 73 70.6394 73C63.2577 73 57.6047 69.9348 53.6803 63.8043C50.41 58.7112 48.7748 52.345 48.7748 44.7054C48.7748 34.9909 51.2275 26.2904 56.1331 18.6037C61.0386 10.917 68.4435 4.71579 78.348 0L81.011 5.2345C75.0309 7.78102 69.8919 11.7658 65.5937 17.189ZM16.8189 17.189C12.5207 22.6121 10.3717 28.1059 10.3717 33.6705C10.3717 36.0284 10.652 38.0562 11.2126 39.7539C14.3895 37.2074 17.9401 35.9341 21.8646 35.9341C27.0037 35.9341 31.3485 37.6082 34.8992 40.9564C38.4499 44.3046 40.2252 48.8081 40.2252 54.4671C40.2252 57.9567 39.3843 61.1163 37.7024 63.9457C36.0205 66.7752 33.778 68.9916 30.9748 70.595C28.1716 72.1983 25.1349 73 21.8646 73C14.4829 73 8.82994 69.9348 4.90551 63.8043C1.63515 58.7112 0 52.345 0 44.7054C0 34.9909 2.45273 26.2904 7.35827 18.6037C12.2638 10.917 19.6687 4.71579 29.5732 0L32.2362 5.2345C26.2561 7.78102 21.1171 11.7658 16.8189 17.189Z" fill="#2FFBC8"/>
</svg>
